<svg width="168" height="26" viewBox="0 0 168 26" fill="none" xmlns="http://www.w3.org/2000/svg">
<path d="M29.0771 5.99805C33.5426 5.99813 37.1822 9.63897 37.1822 14.1314C37.1822 16.2809 36.2198 18.2602 34.7737 19.7479L36.7597 22.1967H33.7807L32.9625 21.1661C31.7125 21.9182 30.3884 22.2421 29.0544 22.2421C24.5891 22.2421 20.9493 18.624 20.9492 14.1314C20.9493 9.63889 24.5889 5.99812 29.0771 5.99805ZM29.0771 8.0997C25.8043 8.09978 23.2276 10.803 23.2275 14.1314C23.2277 17.4373 25.8042 20.1404 29.0771 20.1405C29.8393 20.1405 30.508 19.9624 30.9866 19.784C31.2257 19.6949 31.4173 19.6053 31.5486 19.5386C31.5809 19.5222 31.6095 19.5066 31.6343 19.4932L28.1824 15.1444H31.0412L33.4884 18.1624C34.5672 16.9515 34.9039 15.5387 34.9039 14.1314C34.9038 10.7805 32.3498 8.09979 29.0771 8.0997Z" fill="black"/>
<path d="M56.8027 10.3887C60.1253 10.3888 61.7869 12.3258 61.7869 15.2534V21.9866H59.7791V20.0499C58.8561 21.4686 57.264 22.2569 55.5566 22.2569C53.3183 22.2569 51.9336 20.9959 51.9336 18.924C51.9336 16.5594 53.7795 15.1406 57.1482 15.1405H59.7101V14.8702C59.7101 13.2713 58.5559 12.2126 56.41 12.2126C55.0718 12.2126 53.8952 12.5959 52.7416 13.4741V11.56C53.8953 10.7718 55.2336 10.3887 56.8027 10.3887ZM57.0566 16.6942C55.026 16.6942 53.9414 17.3704 53.9414 18.6992C53.9416 19.87 54.7721 20.5677 56.1334 20.5677C58.0253 20.5677 59.7561 19.1944 59.7564 17.6407V16.6942H57.0566Z" fill="black"/>
<path d="M105.432 11.689C104.681 10.7371 103.492 10.2715 101.894 10.2715C100.671 10.2715 99.6754 10.5803 98.9191 11.2078L98.8469 11.2698H98.8461C98.0876 11.9395 97.7094 12.8172 97.7093 13.8919C97.7093 14.8186 98.1197 15.5485 98.929 16.0705C99.3817 16.37 100.075 16.6353 100.999 16.8702L102.44 17.2415C103.212 17.4407 103.714 17.6123 103.961 17.7545C104.337 17.9816 104.521 18.3061 104.521 18.7411C104.521 19.2933 104.313 19.7024 103.897 19.9826L103.811 20.0371C103.321 20.321 102.75 20.4646 102.096 20.4646C101.02 20.4646 100.283 20.1881 99.85 19.6632L99.8094 19.6121C99.5787 19.3054 99.4315 18.8541 99.3787 18.2466L99.3696 18.1435H97.4023L97.4073 18.2608C97.4553 19.3841 97.8195 20.3348 98.5034 21.1058L98.5042 21.1067C99.2077 21.8846 100.387 22.2584 102.006 22.2584C103.513 22.2584 104.657 21.8972 105.412 21.1528H105.411C106.164 20.4173 106.543 19.5395 106.543 18.5249C106.543 17.511 106.201 16.7416 105.504 16.2398L105.435 16.192C104.972 15.8767 104.08 15.5601 102.779 15.2373L101.58 14.938L101.392 14.8886C100.998 14.7797 100.693 14.6592 100.474 14.5289L100.425 14.4988L100.423 14.4979L100.345 14.446C99.964 14.1822 99.782 13.8482 99.782 13.4384C99.782 13.0334 99.9402 12.7126 100.261 12.466C100.589 12.2189 101.081 12.0863 101.753 12.0863C102.765 12.0863 103.445 12.327 103.83 12.7762C104.072 13.1025 104.207 13.4631 104.239 13.86L104.248 13.964H106.178L106.181 13.8533C106.194 13.1583 105.995 12.5074 105.588 11.9036L105.504 11.7837V11.7828L105.432 11.689Z" fill="black"/>
<path d="M87.9882 19.6611C87.4052 19.0965 87.1258 18.125 87.1258 17.0635V10.627H84.9336V17.2214C84.9336 18.8024 85.3299 20.1355 86.1461 20.9937C86.9155 21.8065 88.0115 22.2578 89.3171 22.2579C91.1127 22.2579 92.4192 21.3995 93.2121 19.7734V21.9868H95.3805V10.627H93.1653V16.1827C93.1653 18.78 91.9525 20.3831 89.9238 20.3831C89.131 20.3831 88.4313 20.1127 87.9882 19.6611Z" fill="black"/>
<path d="M82.7965 10.6967H79.8011V7.30664H77.6912V10.6967H76.1484V12.5379H77.6912V18.3761C77.6912 20.9356 79.0304 22.2607 81.1859 22.2607C81.7983 22.2606 82.3428 22.1258 82.7965 21.9013V20.1047C82.3882 20.2843 81.9799 20.3515 81.5943 20.3515C80.4146 20.3515 79.7789 19.611 79.7788 18.4886V12.5379H82.7965V10.6967Z" fill="black"/>
<path d="M74.4938 15.3347C74.4938 12.2407 72.6829 10.3887 70.1061 10.3887C68.3418 10.3887 66.9257 11.3146 66.1828 12.8503V10.6597H64.0469V22.0196H66.2293V16.1252C66.2293 13.799 67.5293 12.2854 69.3168 12.2854C71.1739 12.2854 72.2885 13.6865 72.2885 15.8997V22.0196H74.4938V15.3347Z" fill="black"/>
<path d="M42.4887 19.6611C41.9123 19.0965 41.636 18.125 41.636 17.0635V10.627H39.4688V17.2214C39.4688 18.8024 39.8606 20.1355 40.6675 20.9937C41.4282 21.8065 42.5117 22.2578 43.8025 22.2579C45.5776 22.2579 46.8693 21.3995 47.6532 19.7734V21.9868H49.7969V10.627H47.607V16.1827C47.607 18.78 46.4079 20.3831 44.4022 20.3831C43.6185 20.3831 42.9267 20.1127 42.4887 19.6611Z" fill="black"/>
<path d="M2.77995 16.5973C2.84082 16.9146 3.11201 17.1518 3.42116 17.1583L10.2969 16.8038C10.6415 16.811 10.8277 16.4097 10.6159 16.1166L2.10136 4.25278C2.03375 4.15915 2.12769 4.04075 2.22804 4.09317L13.6203 9.61565L0.361151 1.49353C0.203925 1.39306 0.0151424 1.52444 0.0506556 1.70964L2.77995 16.5973Z" fill="black"/>
<path d="M14.4275 10.7118C14.3969 10.5427 14.1634 10.532 14.1362 10.6986L12.7754 18.5042C12.7206 18.8394 12.4214 19.0596 12.0902 19.0088L4.13627 18.0926C3.97078 18.0671 3.90919 18.2978 4.0599 18.3785L16.1028 24.4702C16.4149 24.6374 16.7603 24.3799 16.6966 24.0278L14.4275 10.7118Z" fill="black"/>
<path d="M167.674 11.494V12.6041H165.492V19.1116C165.492 20.4322 166.219 20.7958 167.004 20.7958C167.272 20.7958 167.655 20.7576 167.865 20.7576V21.9825C167.655 22.0016 167.329 22.0399 166.889 22.0399C165.53 22.0399 164.171 21.1595 164.171 19.4369V12.6041H162.621V11.494H164.171V9.00586H165.492V11.494H167.674Z" fill="black"/>
<path d="M154.168 15.4363V21.8863H152.848V8.0293H154.168V13.1396H154.264C154.762 12.0486 155.757 11.3596 157.345 11.3596C159.451 11.3596 160.886 12.6802 160.886 15.1684V21.8863H159.585V15.2641C159.585 13.5606 158.59 12.5462 157.001 12.5462C155.355 12.5462 154.168 13.6372 154.168 15.4363Z" fill="black"/>
<path d="M145.884 26.0027C143.587 26.0027 141.922 25.0266 141.673 23.1892H143.051C143.3 24.2993 144.391 24.8543 145.884 24.8543C147.779 24.8543 148.927 23.9739 148.927 22.0791V19.7823H148.812C148.41 20.6819 147.53 21.7729 145.635 21.7729C143.147 21.7729 141.348 19.8015 141.348 16.6052C141.348 13.428 143.089 11.3418 145.654 11.3418C147.587 11.3418 148.41 12.5476 148.831 13.428H148.946V11.4949H150.228V22.1557C150.228 24.7969 148.391 26.0027 145.884 26.0027ZM145.807 20.6053C147.779 20.6053 148.946 19.1125 148.946 16.6435C148.946 14.251 147.817 12.5285 145.807 12.5285C143.759 12.5285 142.668 14.3467 142.668 16.6435C142.668 18.9785 143.778 20.6053 145.807 20.6053Z" fill="black"/>
<path d="M137.947 21.8875V11.4947H139.249V21.8875H137.947ZM138.617 9.71474C138.1 9.71474 137.66 9.31281 137.66 8.81518C137.66 8.31755 138.1 7.89648 138.617 7.89648C139.134 7.89648 139.574 8.31755 139.574 8.81518C139.574 9.31281 139.134 9.71474 138.617 9.71474Z" fill="black"/>
<path d="M134.387 14.0788C134.157 13.1026 133.392 12.4902 132.109 12.4902C130.712 12.471 129.755 13.2366 129.755 14.251C129.755 15.0549 130.348 15.6099 131.612 15.9162L133.2 16.2989C134.961 16.7392 135.822 17.6579 135.822 19.055C135.822 20.835 134.387 22.0982 131.937 22.0982C129.717 22.0982 128.358 21.0838 128.09 19.2464H129.449C129.659 20.3757 130.501 20.9499 131.918 20.9499C133.487 20.9499 134.502 20.2417 134.502 19.1316C134.502 18.3086 133.927 17.7344 132.702 17.4473L131.114 17.0645C129.372 16.6626 128.434 15.6865 128.434 14.3084C128.434 12.5859 129.927 11.3418 132.109 11.3418C134.157 11.3609 135.459 12.4519 135.688 14.0788H134.387Z" fill="black"/>
<path d="M119.371 15.4381V21.8881H118.051V11.4953H119.314V13.1413H119.429C119.926 12.0695 120.96 11.3613 122.491 11.3613C124.597 11.3613 126.013 12.7011 126.013 15.1701V21.8881H124.711V15.2658C124.711 13.5815 123.716 12.548 122.147 12.548C120.539 12.548 119.371 13.6389 119.371 15.4381Z" fill="black"/>
<path d="M115.203 8.0293V21.8863H113.844V8.0293H115.203Z" fill="black"/>
</svg>
